<?xml version="1.0" encoding="utf-8"?>
<!-- Generator: Adobe Illustrator 24.3.0, SVG Export Plug-In . SVG Version: 6.00 Build 0)  -->
<svg version="1.1" xmlns="http://www.w3.org/2000/svg" xmlns:xlink="http://www.w3.org/1999/xlink" x="0px" y="0px"
	 viewBox="0 0 259.39 246.21" style="enable-background:new 0 0 259.39 246.21;" xml:space="preserve">
<style type="text/css">
	.st0{fill:#39255C;}
	.st1{fill:#ED7560;}
	.st2{fill:#927CB9;}
	.st3{fill:#D65A43;}
	.st4{fill:#8974B5;}
	.st5{fill:#36265B;}
	.st6{fill:#1E8C91;}
	.st7{fill:#B94836;}
	.st8{fill:#F9F8F3;}
</style>
<g id="Layer_1">
</g>
<g id="Layer_5">
</g>
<g id="Layer_7">
</g>
<g id="_x31_">
	<g>
		<g>
			<path class="st0" d="M114.54,38.91c0,0,14.78-25.37,32.37-13.19s14.58,5.99,16.18,14.58s0,16.58,0,16.58l-40.56,18.98
				c0,0-17.98-18.18-15.98-28.17S114.54,38.91,114.54,38.91z"/>
		</g>
		<g>
			<path class="st1" d="M228.42,160.48c0,11.92-0.18,19.92-9.06,20.97c0.32-0.67,0.47-1.09,0.47-1.09s-20.18-63.13-22.78-68.53
				c-0.7-1.46-2.76-2.43-5.4-3.07c-1.04-7.3-1.59-11.91-1.59-11.91s-24.77-14.24-16.78-37.99c0,0,8.19-5.42,11.99,0
				c3.79,5.42,16.98,23.6,16.38,35.99C201.65,94.85,228.42,148,228.42,160.48z"/>
		</g>
		<g>
			<g>
				<path class="st2" d="M173.16,84.78c-0.94,0-1.81-0.38-2.45-1.07l-19.22-20.89c-0.63-0.69-0.94-1.58-0.87-2.51
					c0.07-0.93,0.52-1.77,1.25-2.35l10.87-8.63c0.59-0.47,1.31-0.72,2.07-0.72c0.92,0,1.77,0.36,2.41,1.03l18.52,19.35
					c1.24,1.3,1.22,3.39-0.05,4.66l-10.17,10.17C174.88,84.44,174.05,84.78,173.16,84.78z"/>
			</g>
			<g>
				<path class="st0" d="M164.81,49.6L164.81,49.6c0.64,0,1.24,0.26,1.68,0.72l18.52,19.35c0.87,0.91,0.85,2.37-0.04,3.26
					L174.81,83.1c-0.44,0.44-1.02,0.68-1.65,0.68c-0.66,0-1.27-0.27-1.72-0.75l-19.22-20.89c-0.44-0.48-0.66-1.11-0.61-1.76
					c0.05-0.65,0.36-1.24,0.87-1.64l10.87-8.63C163.78,49.77,164.28,49.6,164.81,49.6 M164.81,47.6c-0.95,0-1.9,0.31-2.69,0.94
					l-10.87,8.63c-1.97,1.56-2.2,4.47-0.49,6.32l19.22,20.89c0.86,0.93,2.02,1.4,3.19,1.4c1.11,0,2.21-0.42,3.06-1.27l10.17-10.17
					c1.66-1.66,1.69-4.35,0.07-6.06l-18.52-19.35C167.09,48.05,165.95,47.6,164.81,47.6L164.81,47.6z"/>
			</g>
		</g>
		<g>
			<path class="st1" d="M159.06,102.1l7.03,9.93l-16.59,14.39l-25.17-17.19l4.4-29.77c0,0-16.57,1.39-13.78-12.39
				c1.19-2.59,10.78-5.19,14.97,3.2c0,0,1.2-10.98-2.79-18.98c0,0,26.15-4.13,29.57-10.78c0,0,8.59,14.98,11.78,26.37
				c3.2,11.39-3.19,26.17-14.98,27.37L159.06,102.1z"/>
		</g>
		<g>
			<path class="st3" d="M153.5,101.92c-12.71-2.35-15.24-17.42-15.24-17.42c5.21,11.79,15.24,9.75,15.24,9.75"/>
		</g>
		<g>
			<path class="st1" d="M219.83,180.36c0,0-0.15,0.42-0.47,1.09c-0.42,0.06-0.87,0.09-1.33,0.11c-10.19,0.4-13.18-4.2-18.98-30.97
				c-3.4-15.7-5.9-31.48-7.4-41.83c2.64,0.64,4.7,1.61,5.4,3.07C199.65,117.23,219.83,180.36,219.83,180.36z"/>
		</g>
		<g>
			<path class="st4" d="M219.36,181.45c-1.34,2.84-5.6,10.22-13.51,9.9c-9.79-0.4-17.39-11.99-17.39-11.99s4.2,27.97,2.2,32.77
				c-2,4.79-0.6,8.99-22.18,13.98c-21.57,5-72.32,4.8-69.52-24.97c0,0-3.6,20.58-20.38,13.38c-16.78-7.19-3-54.54-3-54.54
				s9.19-38.96,18.78-44.55c9.59-5.6,23.58-7.74,23.58-7.74h10.96l19.01,11.79l10.05-12.69l15.33,0.9c0,0,11.27-0.66,18.37,1.07
				c1.5,10.35,4,26.13,7.4,41.83c5.8,26.77,8.79,31.37,18.98,30.97C218.49,181.54,218.94,181.51,219.36,181.45z"/>
		</g>
		<g>
			<path class="st5" d="M99.36,183.5l-0.96-0.29c8.2-26.76,3.46-33.44,3.41-33.51l0.79-0.62
				C102.81,149.36,107.77,156.05,99.36,183.5z"/>
		</g>
		<g>
			<path class="st5" d="M187.97,179.44c-0.04-0.25-3.7-24.72-4.14-30c-0.46-5.49,5.86-12.3,6.12-12.59l0.73,0.68
				c-0.06,0.07-6.28,6.78-5.86,11.83c0.44,5.25,4.09,29.69,4.13,29.93L187.97,179.44z"/>
		</g>
		<g>
			<path class="st5" d="M151.6,226.36l-1-0.1c0.08-0.83,8.05-82.83-3.15-105.22l0.89-0.45c4.76,9.52,6.75,30.22,5.92,61.52
				C153.66,205.4,151.62,226.16,151.6,226.36z"/>
		</g>
		<g>
			<path class="st6" d="M157.47,133.08c-1.11,0-2.01-0.9-2.01-2.01s0.9-2.01,2.01-2.01c1.11,0,2.01,0.9,2.01,2.01
				S158.58,133.08,157.47,133.08z M157.47,130.06c-0.56,0-1.01,0.46-1.01,1.01s0.46,1.01,1.01,1.01c0.56,0,1.01-0.46,1.01-1.01
				S158.03,130.06,157.47,130.06z"/>
		</g>
		<g>
			<path class="st6" d="M159.49,163.02c-1.11,0-2.01-0.9-2.01-2.01s0.9-2.01,2.01-2.01c1.11,0,2.01,0.9,2.01,2.01
				S160.61,163.02,159.49,163.02z M159.49,159.99c-0.56,0-1.01,0.46-1.01,1.01s0.46,1.01,1.01,1.01c0.56,0,1.01-0.46,1.01-1.01
				S160.05,159.99,159.49,159.99z"/>
		</g>
		<g>
			<path class="st6" d="M161.01,192.14c-1.11,0-2.01-0.9-2.01-2.01s0.9-2.01,2.01-2.01c1.11,0,2.01,0.9,2.01,2.01
				S162.12,192.14,161.01,192.14z M161.01,189.11c-0.56,0-1.01,0.46-1.01,1.01s0.46,1.01,1.01,1.01c0.56,0,1.01-0.46,1.01-1.01
				S161.57,189.11,161.01,189.11z"/>
		</g>
		<g>
			<path class="st1" d="M21.24,109.44c0.33,3.52,3.8,12.79,8.99,14.98s18.98,7.79,18.98,7.79s9.79,75.92,33.76,83.31
				c7.19,0,15.38-6.19,10.39-22.18c-4.99-15.98-31.57-62.33-31.57-62.33s0.6-7.79-5.79-10.19s-17.18-8.79-17.98-13.99
				c0,0-4.4-0.2,1.8,9.39c0,0-7.99-5.2-9.19-9.39c-1.2-4.2-3.2,2,0,6.59S20.71,103.81,21.24,109.44z"/>
		</g>
		<g>
			<path class="st5" d="M127.93,93.25c0,0-12.99-2.2-14.78,15.18c0,0,9.19,18.98,14.78,12.39c5.59-6.59,5.59-6.59,5.59-6.59
				s10.19,7.39,14.38,6.59s10.05-11.99,10.05-11.99l10.53,5.79c0,0-1.2-10.99-3.8-12.59c-2.6-1.6-11.19-7.59-11.19-7.59v9.79
				l2.8,1.8c0,0-4.6,9.59-8.19,10.59C144.51,117.63,123.73,108.04,127.93,93.25z"/>
		</g>
		<g>
			<path class="st0" d="M135.1,64.09c-0.33,0-0.66-0.17-0.85-0.47c-0.29-0.47-0.15-1.09,0.32-1.38c0.79-0.49,7.82-4.78,11.07-4.34
				c0.55,0.07,0.93,0.58,0.86,1.12c-0.07,0.55-0.57,0.93-1.12,0.86c-1.91-0.25-7,2.35-9.75,4.05
				C135.46,64.04,135.28,64.09,135.1,64.09z"/>
		</g>
		<g>
			<path class="st0" d="M153.5,57.89c-0.3,0-0.59-0.13-0.79-0.38c-0.34-0.43-0.27-1.06,0.17-1.4c1.06-0.83,6.45-4.83,8.95-2.08
				c0.37,0.41,0.34,1.04-0.07,1.41c-0.41,0.37-1.04,0.34-1.41-0.07c-0.89-0.98-4.19,0.71-6.23,2.31
				C153.93,57.82,153.72,57.89,153.5,57.89z"/>
		</g>
		<g>
			<path class="st7" d="M155.7,74.77c-0.27,0-0.49-0.21-0.5-0.48c-0.01-0.28,0.2-0.51,0.48-0.52c1.32-0.05,4.96-0.55,5.99-2.17
				c0.26-0.42,0.3-0.86,0.12-1.35c-0.53-1.44-2.82-2.94-4.64-3.5c-2.83-0.87-4.08-5.46-4.13-5.66c-0.07-0.27,0.09-0.54,0.35-0.61
				c0.27-0.07,0.54,0.09,0.61,0.35c0.01,0.04,1.16,4.25,3.46,4.96c2.06,0.64,4.62,2.29,5.29,4.11c0.29,0.78,0.21,1.56-0.22,2.23
				c-1.52,2.39-6.58,2.62-6.79,2.63C155.71,74.77,155.7,74.77,155.7,74.77z"/>
		</g>
		<g>
			<path class="st8" d="M149.1,79.27l11.99-0.8c0,0-1.6,7.79-5.19,7.79C152.3,86.26,149.1,79.27,149.1,79.27z"/>
		</g>
		<g>
			
				<ellipse transform="matrix(0.9282 -0.3722 0.3722 0.9282 -14.5883 58.3781)" class="st0" cx="143.94" cy="66.98" rx="1.57" ry="3.4"/>
		</g>
		<g>
			
				<ellipse transform="matrix(0.9282 -0.3722 0.3722 0.9282 -11.3221 63.9024)" class="st0" cx="159.88" cy="61.28" rx="1.57" ry="3.4"/>
		</g>
	</g>
</g>
</svg>
