<svg id="visual" viewBox="0 0 1920 1080" width="1920" height="1080" xmlns="http://www.w3.org/2000/svg" xmlns:xlink="http://www.w3.org/1999/xlink" version="1.1"><rect x="0" y="0" width="1920" height="1080" fill="#1E3A8A"></rect><defs><linearGradient id="grad1_0" x1="43.8%" y1="0%" x2="100%" y2="100%"><stop offset="14.444444444444446%" stop-color="#1e3a8a" stop-opacity="1"></stop><stop offset="85.55555555555554%" stop-color="#1e3a8a" stop-opacity="1"></stop></linearGradient></defs><defs><linearGradient id="grad2_0" x1="0%" y1="0%" x2="56.3%" y2="100%"><stop offset="14.444444444444446%" stop-color="#1e3a8a" stop-opacity="1"></stop><stop offset="85.55555555555554%" stop-color="#1e3a8a" stop-opacity="1"></stop></linearGradient></defs><g transform="translate(1920, 0)"><path d="M0 255C-25 247.8 -50 240.7 -76 234C-102 227.3 -129 221 -150.5 207.1C-171.9 193.2 -187.9 171.7 -207.1 150.5C-226.4 129.3 -248.9 108.5 -256.8 83.4C-264.7 58.4 -257.8 29.2 -251 0L0 0Z" fill="#ffffff"></path></g><g transform="translate(0, 1080)"><path d="M0 -254C27.8 -255.4 55.5 -256.9 81.3 -250.1C107 -243.4 130.7 -228.4 154.6 -212.8C178.5 -197.2 202.5 -181 218.4 -158.7C234.4 -136.4 242.3 -108.1 248.2 -80.7C254.1 -53.2 258.1 -26.6 262 0L0 0Z" fill="#ffffff"></path></g></svg>