<svg id="visual" viewBox="0 0 900 600" width="900" height="600" xmlns="http://www.w3.org/2000/svg" xmlns:xlink="http://www.w3.org/1999/xlink" version="1.1"><rect x="0" y="0" width="900" height="600" fill="#1E3A8A"></rect><path d="M0 446L25 457.8C50 469.7 100 493.3 150 494.8C200 496.3 250 475.7 300 463.8C350 452 400 449 450 460C500 471 550 496 600 501.5C650 507 700 493 750 484C800 475 850 471 875 469L900 467L900 601L875 601C850 601 800 601 750 601C700 601 650 601 600 601C550 601 500 601 450 601C400 601 350 601 300 601C250 601 200 601 150 601C100 601 50 601 25 601L0 601Z" fill="#ffffff" stroke-linecap="round" stroke-linejoin="miter"></path></svg>