<svg id="Layer_1" data-name="Layer 1" xmlns="http://www.w3.org/2000/svg" viewBox="0 0 170.07 195"><defs><style>.cls-1{fill:#e5d3b5;stroke-width:1.5px;}.cls-1,.cls-3,.cls-4{stroke:#231f20;stroke-miterlimit:10;}.cls-2{fill:#231f20;}.cls-3{fill:#88171a;}.cls-4{fill:none;stroke-width:2px;}</style></defs><title>logo</title><path class="cls-1" d="M224.15,316.53c-.16-12.81-.8-30.07-2.78-50.44-2-20.82-5.21-42.74-6.12-48.67-2.63-17-1.76-34.6-6.12-51.23-1.24-4.7-4-14.47.32-23.53,2.25-4.67,6-8.32,8.05-10.31,3.3-3.2,6.86-6.66,12.57-8.38,4.12-1.24,7.42-1,11.93-.64,4.1.31,9.35.71,15.14,3.54a35.52,35.52,0,0,1,13.21,11.6c5.53,7.49,7.22,15.08,8.38,20.3a67.52,67.52,0,0,1,1.29,8.06c1.24,11.63,3.25,23.17,4.51,34.8,3.17,29.27,8.7,57.69,8.7,57.69,5.62,31.86,6.82,38.5,6.85,38.49s-2.75-18.89-7.25-43.53c0,0-5.3-30.34-6.52-42.53-.49-4.88-.57-6.74-1.21-11.73-1.77-13.77-3.55-18.11-3.51-28,0-7.1,1-10.61,2.3-13.54a26.68,26.68,0,0,1,6.44-8.7,30.34,30.34,0,0,1,12.25-6.44,33.39,33.39,0,0,1,12.89-.65,31.82,31.82,0,0,1,13.86,5.16c4.16,2.83,7.24,6.51,10.95,13.21,4.27,7.7,5.82,13,12.25,34.48,4.55,15.21,5.22,17.38,6.44,22.24,2.1,8.28,3.4,14.77,4.52,20.3,2.18,10.87,3.49,19.16,3.86,21.59,1.39,9,1.1,8.79,2.58,18.69.12.77.21,1.4.31,2,1.54,9.75,2.4,14.16,3.56,21.16.44,2.67,1.07,6.66,1.76,11.59Z" transform="translate(-206.35 -122.3)"/><circle class="cls-2" cx="27.31" cy="37.81" r="4.59"/><path class="cls-3" d="M233.32,170.9c1.78-.19,2.46,1.54,4.59,2.66,2.36,1.24,4.79.82,9.67,0,5.14-.87,6.3-2,7.13-1.21,1.66,1.56-.94,8.1-5.32,12a15.9,15.9,0,0,1-6.65,3.51c-1.9.47-4.58,1.14-7.49-.12a10.15,10.15,0,0,1-4.83-4.72,11,11,0,0,1-1.33-5.92,7.3,7.3,0,0,1,1.54-4.41A4.39,4.39,0,0,1,233.32,170.9Z" transform="translate(-206.35 -122.3)"/><path class="cls-4" d="M294.3,169.06a13.23,13.23,0,0,1,5.32-6.93c1.37-.87,2.85-2,4.67-1.77,2.6.28,4.88,3,5.8,6.76" transform="translate(-206.35 -122.3)"/><path class="cls-4" d="M315.42,166.75a13.14,13.14,0,0,1,5.31-6.93c1.37-.87,2.85-2,4.68-1.77,2.59.28,4.88,3,5.8,6.77" transform="translate(-206.35 -122.3)"/><path class="cls-4" d="M304.18,179.27a11.28,11.28,0,0,0,4.71,3.87,11.53,11.53,0,0,0,6.4.72c6.89-1,10.79-7.57,11.36-8.58" transform="translate(-206.35 -122.3)"/><path class="cls-2" d="M215,212.83c1.75-.62,4.24,6.39,10.43,11.85a31.85,31.85,0,0,0,14.22,7c.34-.47,4.2-5.71,6.77-4.83.09,0,.85.29,1,.85.29,1.43-4.18,3.26-4,3.74s5.78-2.2,7.49-.36a2.24,2.24,0,0,1,.24,2.54c-1.3,2-6.72,0-7,.84-.22.67,2.51,3,5.92,3.75,1.46.31,2.81.28,3.15,1.09a1.89,1.89,0,0,1-.73,1.93c-1.39,1.09-4-.12-5.8-1s-2.36-1.61-4.95-3.38c0,0-2.1-1.42-4.6-2.78-4.33-2.35-5.48-1.94-9.3-3.87a36.53,36.53,0,0,1-6.65-4.47c-4-3.13-6-4.76-6.77-7.49C213.82,216.14,213.94,213.21,215,212.83Z" transform="translate(-206.35 -122.3)"/><path class="cls-2" d="M359.06,221c-1.57,0-1.46,4.07-4.52,7.25a13.22,13.22,0,0,1-6.44,3.39c-2.12.59-4.85.45-10.31.16-3.94-.21-4.58-.44-5.16-1s-.74-1.05-2.58-6.61c-.52-1.58-.89-2.64-1.93-3.22a2.51,2.51,0,0,0-2.42-.16c-1.36.92-1.08,4.49.65,6.61,1.29,1.58,3,1.88,2.9,2.25s-2.69.46-5.16-.48c-2.12-.81-2.82-1.81-3.87-1.45a2.43,2.43,0,0,0-1.45,2.74c.43,1.14,2.44,1.31,4.19,1.45,3.19.25,5.38-.49,5.48-.16s-.63.58-3.71,2.25c-2.33,1.28-3.09,1.68-3.38,2.58a2.34,2.34,0,0,0,.48,2.42c1.36,1,4.78-1.25,7.58-3.06a10.5,10.5,0,0,1,2.74-1.62c2.2-.66,4.06.16,5.64.65a24.33,24.33,0,0,0,11.28.32,17,17,0,0,0,8.05-4.19c.95-.9,5-4.71,3.87-8.05C360.7,222.21,359.93,221,359.06,221Z" transform="translate(-206.35 -122.3)"/><circle class="cls-2" cx="44.27" cy="35.73" r="4.59"/></svg>