<svg id="Layer_1" data-name="Layer 1" xmlns="http://www.w3.org/2000/svg" viewBox="0 0 619 195"><defs><style>.cls-1{fill:#e5d3b5;stroke-width:1.5px;}.cls-1,.cls-3,.cls-4{stroke:#231f20;stroke-miterlimit:10;}.cls-2,.cls-5{fill:#231f20;}.cls-3{fill:#88171a;}.cls-4{fill:none;stroke-width:2px;}.cls-5{font-size:80.46px;font-family:Monarda-Regular, Monarda;}</style></defs><title>logo_side</title><path class="cls-1" d="M52.58,316.53c-.17-12.81-.8-30.07-2.78-50.44-2-20.82-5.21-42.74-6.13-48.67-2.62-17-1.75-34.6-6.12-51.23-1.23-4.7-4-14.47.32-23.53,2.25-4.67,6-8.32,8.06-10.31,3.29-3.2,6.86-6.66,12.57-8.38,4.12-1.24,7.42-1,11.92-.64,4.11.31,9.36.71,15.15,3.54a35.6,35.6,0,0,1,13.21,11.6c5.53,7.49,7.22,15.08,8.38,20.3a69.72,69.72,0,0,1,1.29,8.06c1.24,11.63,3.25,23.17,4.51,34.8,3.17,29.27,8.7,57.69,8.7,57.69,5.61,31.86,6.82,38.5,6.85,38.49s-2.75-18.89-7.25-43.53c0,0-5.3-30.34-6.53-42.53-.49-4.88-.57-6.74-1.21-11.73-1.76-13.77-3.54-18.11-3.5-28,0-7.1,1-10.61,2.29-13.54a26.77,26.77,0,0,1,6.45-8.7A30.26,30.26,0,0,1,131,143.31a33.34,33.34,0,0,1,12.89-.65,31.79,31.79,0,0,1,13.85,5.16c4.17,2.83,7.25,6.51,11,13.21,4.26,7.7,5.81,13,12.25,34.48,4.55,15.21,5.21,17.38,6.44,22.24,2.1,8.28,3.4,14.77,4.51,20.3,2.19,10.87,3.49,19.16,3.87,21.59,1.39,9,1.09,8.79,2.58,18.69.11.77.21,1.4.31,2,1.54,9.75,2.4,14.16,3.55,21.16.44,2.67,1.08,6.66,1.77,11.59Z" transform="translate(-34.77 -122.3)"/><circle class="cls-2" cx="27.31" cy="37.81" r="4.59"/><path class="cls-3" d="M61.74,170.9c1.79-.19,2.46,1.54,4.6,2.66,2.35,1.24,4.79.82,9.66,0,5.14-.87,6.31-2,7.13-1.21,1.66,1.56-.93,8.1-5.31,12a16,16,0,0,1-6.65,3.51c-1.9.47-4.59,1.14-7.49-.12A10.23,10.23,0,0,1,58.84,183a11,11,0,0,1-1.33-5.92,7.36,7.36,0,0,1,1.54-4.41A4.42,4.42,0,0,1,61.74,170.9Z" transform="translate(-34.77 -122.3)"/><path class="cls-4" d="M122.73,169.06a13.18,13.18,0,0,1,5.32-6.93c1.36-.87,2.84-2,4.67-1.77,2.59.28,4.88,3,5.8,6.76" transform="translate(-34.77 -122.3)"/><path class="cls-4" d="M143.84,166.75a13.23,13.23,0,0,1,5.32-6.93c1.37-.87,2.85-2,4.67-1.77,2.6.28,4.88,3,5.8,6.77" transform="translate(-34.77 -122.3)"/><path class="cls-4" d="M132.6,179.27a11.32,11.32,0,0,0,4.72,3.87,11.52,11.52,0,0,0,6.4.72c6.89-1,10.79-7.57,11.36-8.58" transform="translate(-34.77 -122.3)"/><path class="cls-2" d="M43.42,212.83c1.75-.62,4.25,6.39,10.44,11.85a31.8,31.8,0,0,0,14.22,7c.34-.47,4.19-5.71,6.76-4.83.09,0,.86.29,1,.85.29,1.43-4.18,3.26-4,3.74s5.78-2.2,7.49-.36a2.22,2.22,0,0,1,.25,2.54c-1.3,2-6.72,0-7,.84-.22.67,2.5,3,5.92,3.75,1.46.31,2.81.28,3.14,1.09a1.86,1.86,0,0,1-.72,1.93c-1.39,1.09-4-.12-5.8-1s-2.37-1.61-5-3.38c0,0-2.09-1.42-4.59-2.78-4.34-2.35-5.48-1.94-9.31-3.87a36.46,36.46,0,0,1-6.64-4.47c-4-3.13-6-4.76-6.77-7.49C42.25,216.14,42.36,213.21,43.42,212.83Z" transform="translate(-34.77 -122.3)"/><path class="cls-2" d="M187.48,221c-1.56,0-1.45,4.07-4.51,7.25a13.29,13.29,0,0,1-6.45,3.39c-2.11.59-4.85.45-10.31.16-3.93-.21-4.57-.44-5.15-1s-.75-1.05-2.58-6.61c-.53-1.58-.89-2.64-1.94-3.22a2.49,2.49,0,0,0-2.41-.16c-1.36.92-1.09,4.49.64,6.61,1.29,1.58,3,1.88,2.9,2.25s-2.68.46-5.15-.48c-2.13-.81-2.82-1.81-3.87-1.45a2.41,2.41,0,0,0-1.45,2.74c.42,1.14,2.44,1.31,4.19,1.45,3.19.25,5.37-.49,5.48-.16s-.64.58-3.71,2.25c-2.34,1.28-3.09,1.68-3.38,2.58a2.3,2.3,0,0,0,.48,2.42c1.36,1,4.78-1.25,7.57-3.06a10.66,10.66,0,0,1,2.74-1.62c2.21-.66,4.07.16,5.64.65a24.35,24.35,0,0,0,11.28.32,17,17,0,0,0,8.06-4.19c.94-.9,5-4.71,3.86-8.05C189.12,222.21,188.35,221,187.48,221Z" transform="translate(-34.77 -122.3)"/><circle class="cls-2" cx="44.27" cy="35.73" r="4.59"/><text class="cls-5" transform="translate(176.18 124.36)">helping hand</text></svg>